<?xml version="1.0" encoding="utf-8"?>
<!-- Generator: Adobe Illustrator 19.0.1, SVG Export Plug-In . SVG Version: 6.00 Build 0)  -->
<svg version="1.1" id="Layer_1" xmlns="http://www.w3.org/2000/svg" xmlns:xlink="http://www.w3.org/1999/xlink" x="0px" y="0px"
	 viewBox="-467 129 512 512" style="enable-background:new -467 129 512 512;" xml:space="preserve">
<style type="text/css">
	.st0{fill:#FFFFFF;}
</style>
<g>
	<path class="st0" d="M-420.8,337.3l-9.8-24l-9.8,24 M-203.9,327.8c-2,1.2-4.3,1.2-7.1,1.2h-17.5v-13.4h17.7c2.5,0,5.1,0.1,6.8,1.1
		c1.9,0.9,3,2.7,3,5.3C-200.9,324.7-202,326.8-203.9,327.8z M-79.1,337.3l-10-24l-9.9,24H-79.1z M-311.6,363.3h-14.8l-0.1-47.2
		l-20.9,47.2h-12.6l-20.9-47.2v47.2h-29.3l-5.5-13.4h-30l-5.6,13.4h-15.6l25.8-60.2h21.4l24.5,57v-57h23.5l18.8,40.8l17.3-40.8h24
		L-311.6,363.3L-311.6,363.3z M-252.8,363.3h-48.1v-60.2h48.1v12.5h-33.7v10.9h32.9v12.3h-32.9v12h33.7V363.3z M-185,319.3
		c0,9.6-6.4,14.6-10.1,16c3.1,1.2,5.8,3.3,7.1,5.1c2,3,2.4,5.7,2.4,11v11.8h-14.5l-0.1-7.6c0-3.6,0.3-8.8-2.3-11.7
		c-2.1-2.1-5.3-2.6-10.5-2.6h-15.4v21.9h-14.4v-60.2h33.1c7.4,0,12.8,0.2,17.4,2.9C-187.8,308.7-185,312.6-185,319.3z M-162,363.3
		h-14.7v-60.2h14.7V363.3z M8.3,363.3h-20.4l-27.3-45.2v45.2h-29.3l-5.6-13.4h-29.9l-5.4,13.4h-16.8c-7,0-15.9-1.5-20.9-6.7
		c-5.1-5.1-7.7-12-7.7-23c0-8.9,1.6-17.1,7.8-23.5c4.7-4.8,11.9-7,21.9-7h13.9V316h-13.6c-5.3,0-8.2,0.8-11.1,3.6
		c-2.5,2.5-4.1,7.3-4.1,13.6c0,6.5,1.3,11.1,4,14.1c2.2,2.4,6.2,3.1,10,3.1h6.5l20.3-47.3H-78l24.4,56.9v-56.9h21.9L-6.4,345v-41.9
		H8.3L8.3,363.3L8.3,363.3z M-467,375.1h24.6l5.5-13.4h12.4l5.5,13.4h48.4v-10.2l4.3,10.3h25.1l4.3-10.4v10.4h120.2l-0.1-22h2.3
		c1.6,0.1,2.1,0.2,2.1,2.9v19.1h62.2V370c5,2.7,12.8,5.1,23.1,5.1h26.2l5.6-13.4h12.4l5.5,13.4h50.4v-12.7l7.6,12.7h40.4v-84h-40
		v9.9l-5.6-9.9h-41v9.9l-5.1-9.9H-126c-9.3,0-17.4,1.3-24,4.9v-4.9h-38.2v4.9c-4.2-3.7-9.9-4.9-16.3-4.9h-139.7l-9.4,21.7l-9.6-21.7
		h-44v9.9l-4.8-9.9h-37.5l-17.4,39.9L-467,375.1L-467,375.1z"/>
	<path class="st0" d="M45,419.6H18.8c-2.6,0-4.4,0.1-5.8,1.1c-1.5,1-2.1,2.4-2.1,4.3c0,2.3,1.3,3.8,3.1,4.5c1.5,0.5,3.1,0.7,5.5,0.7
		l7.8,0.2c7.9,0.2,13.1,1.5,16.3,4.8c0.6,0.5,0.9,1,1.3,1.5 M45,459.3c-3.5,5.1-10.3,7.7-19.5,7.7H-2.3V454h27.7
		c2.7,0,4.7-0.4,5.8-1.5c1-0.9,1.7-2.3,1.7-3.9c0-1.8-0.7-3.1-1.8-4c-1-0.9-2.6-1.3-5.1-1.3c-13.5-0.5-30.4,0.4-30.4-18.6
		c0-8.7,5.5-17.9,20.6-17.9H45v-12H18.4c-8,0-13.9,1.9-18,4.9v-4.9H-39c-6.3,0-13.7,1.6-17.2,4.9v-4.9h-70.3v4.9
		c-5.6-4-15-4.9-19.4-4.9h-46.4v4.9c-4.4-4.3-14.3-4.9-20.3-4.9h-51.9l-11.9,12.9l-11.1-12.9h-77.6v84h76.1l12.2-13.1l11.5,13.1
		l46.9,0v-19.8h4.6c6.2,0.1,13.6-0.2,20-3v22.7h38.7v-21.9h1.9c2.4,0,2.6,0.1,2.6,2.5v19.4H-33c7.5,0,15.3-1.9,19.6-5.4v5.4h37.3
		c7.8,0,15.3-1.1,21.1-3.9L45,459.3L45,459.3z M-12.4,435.2c2.8,2.9,4.3,6.6,4.3,12.8c0,13-8.1,19-22.6,19h-28V454h27.9
		c2.7,0,4.7-0.4,5.9-1.5c1-0.9,1.7-2.3,1.7-3.9c0-1.8-0.8-3.1-1.8-4c-1.1-0.9-2.6-1.3-5.1-1.3c-13.5-0.5-30.3,0.4-30.3-18.6
		c0-8.7,5.5-17.9,20.6-17.9H-11v12.8h-26.4c-2.6,0-4.3,0.1-5.8,1.1c-1.6,1-2.2,2.4-2.2,4.3c0,2.3,1.3,3.8,3.1,4.5
		c1.5,0.5,3.1,0.7,5.6,0.7l7.7,0.2C-21,430.5-15.7,431.9-12.4,435.2z M-142.3,431.5c-1.9,1.1-4.3,1.2-7.1,1.2h-17.5v-13.5h17.7
		c2.6,0,5.1,0.1,6.9,1.1c1.9,1,3,2.8,3,5.4S-140.4,430.3-142.3,431.5z M-133.6,439c3.2,1.2,5.8,3.3,7,5.1c2,2.9,2.3,5.7,2.4,11V467
		h-14.4v-7.5c0-3.6,0.3-9-2.3-11.8c-2.1-2.2-5.3-2.7-10.6-2.7h-15.4v22h-14.5v-60.2h33.2c7.3,0,12.6,0.3,17.3,2.8
		c4.5,2.7,7.4,6.5,7.4,13.4C-123.4,432.6-129.8,437.5-133.6,439z M-115.4,406.7h48v12.5h-33.7v10.9h32.9v12.3h-32.9v12l33.7,0.1V467
		h-48V406.7z M-212.5,434.5h-18.6v-15.3h18.8c5.2,0,8.8,2.1,8.8,7.4C-203.5,431.8-207,434.5-212.5,434.5z M-245.4,461.5l-22.1-24.5
		l22.1-23.8V461.5z M-302.5,454.4h-35.4v-12h31.6v-12.3h-31.6v-10.9h36.1l15.7,17.5L-302.5,454.4z M-188.1,426.6
		c0,16.7-12.5,20.2-25.1,20.2h-18V467h-28l-17.7-19.9l-18.4,19.9h-57v-60.2h57.9l17.7,19.7l18.3-19.7h46
		C-200.9,406.7-188.1,409.9-188.1,426.6z"/>
</g>
</svg>
