<?xml version="1.0" encoding="utf-8"?>
<!-- Generator: Adobe Illustrator 19.0.1, SVG Export Plug-In . SVG Version: 6.00 Build 0)  -->
<svg version="1.1" id="Layer_1" xmlns="http://www.w3.org/2000/svg" xmlns:xlink="http://www.w3.org/1999/xlink" x="0px" y="0px"
	 viewBox="0 0 512 512" enable-background="new 0 0 512 512" xml:space="preserve">
<g id="g4163" transform="matrix(0.6384875,0,0,0.6384875,24.348951,24.07854)">
	<g id="g12" transform="translate(143.448,67.609)">
		<path id="path14" fill="#FFFFFF" d="M100.9,421.6l40.6-251.4h64.9l-40.6,251.4H100.9"/>
	</g>
	<g id="g16" transform="translate(224.353,133.66)">
		<path id="path18" fill="#FFFFFF" d="M320.4,110.4c-12.8-5-33-10.6-58.2-10.6c-64.2,0-109.3,34.1-109.7,83
			c-0.4,36.1,32.2,56.3,56.8,68.3c25.3,12.3,33.8,20.2,33.7,31.2c-0.2,16.8-20.2,24.6-38.9,24.6c-26,0-39.8-3.8-61.1-13.2l-8.3-4
			l-9.1,56.3c15.1,7,43.2,13.1,72.3,13.4c68.2,0,112.5-33.7,113-85.9c0.2-28.7-17.1-50.4-54.5-68.3c-22.7-11.7-36.6-19.4-36.4-31.2
			c0-10.5,11.8-21.6,37.2-21.6c21.2-0.3,36.6,4.5,48.6,9.7l5.8,2.9L320.4,110.4"/>
	</g>
	<g id="g20" transform="translate(247.634,91.616)">
		<path id="path22" fill="#FFFFFF" d="M383.5,308.5c5.4-14.4,25.9-70.3,25.9-70.3c-0.4,0.7,5.3-14.6,8.6-24l4.4,21.7
			c0,0,12.5,60,15,72.6C427.3,308.5,396.2,308.5,383.5,308.5z M463.6,146.5h-50.2c-15.6,0-27.2,4.4-34,20.8L283,397.7h68.2
			c0,0,11.1-31,13.6-37.8c7.4,0,73.7,0.1,83.1,0.1c1.9,8.8,7.9,37.7,7.9,37.7h60.2L463.6,146.5"/>
	</g>
	<g id="g24" transform="translate(128.78,135.265)">
		<path id="path26" fill="#FFFFFF" d="M61.1,102.8L-2.4,274.2l-6.8-34.8c-11.8-40.1-48.7-83.6-89.9-105.4L-41,353.8l68.7,0
			l102.2-250.9H61.1"/>
	</g>
	<g id="g28" transform="translate(95.781,135.311)">
		<path id="path30" fill="#FFFFFF" d="M-28.4,102.6h-104.7l-0.9,5.2c81.5,20.8,135.3,71.1,157.7,131.5L1,123.8
			C-2.9,107.9-14.3,103.2-28.4,102.6"/>
	</g>
</g>
</svg>
